<svg width="109" height="121" viewBox="0 0 109 121" fill="none" xmlns="http://www.w3.org/2000/svg">
<path d="M60.7251 60.541C60.7251 93.0078 34.9386 119.451 2.72889 120.508C1.62492 120.544 0.725098 119.646 0.725098 118.541V92.5379C0.725098 91.4334 1.62332 90.5449 2.7255 90.4723C18.3613 89.4432 30.722 76.4375 30.722 60.541C30.722 44.6445 18.3613 31.6388 2.7255 30.6097C1.62332 30.5372 0.725098 29.6487 0.725098 28.5441V2.54102C0.725098 1.43645 1.62492 0.537619 2.72889 0.573845C34.9386 1.63075 60.7251 28.0742 60.7251 60.541Z" fill="#FD4912"/>
<path d="M48.4338 60.541C48.4338 28.0742 74.2203 1.63076 106.43 0.573854C107.534 0.537629 108.434 1.43646 108.434 2.54103V28.5441C108.434 29.6487 107.536 30.5372 106.433 30.6097C90.7977 31.6388 78.4369 44.6445 78.4369 60.541C78.4369 76.4375 90.7976 89.4432 106.433 90.4723C107.536 90.5449 108.434 91.4334 108.434 92.5379V118.541C108.434 119.646 107.534 120.544 106.43 120.508C74.2203 119.451 48.4338 93.0078 48.4338 60.541Z" fill="#FD4912"/>
</svg>
