<svg width="197" height="196" viewBox="0 0 197 196" fill="none" xmlns="http://www.w3.org/2000/svg">
<mask id="path-1-inside-1_229_90" fill="white">
<path fill-rule="evenodd" clip-rule="evenodd" d="M196.5 0H0.5V187.753V196H196.5V0ZM0.5 187.753L0.500003 117.027L61.75 152.39L0.5 187.753Z"/>
</mask>
<path d="M0.5 0V-1H-0.5V0H0.5ZM196.5 0H197.5V-1H196.5V0ZM0.5 196H-0.5V197H0.5V196ZM196.5 196V197H197.5V196H196.5ZM0.500003 117.027L1 116.161L-0.499997 115.295L-0.499997 117.027L0.500003 117.027ZM61.75 152.39L62.25 153.256L63.75 152.39L62.25 151.524L61.75 152.39ZM0.5 1H196.5V-1H0.5V1ZM1.5 187.753V0H-0.5V187.753H1.5ZM1.5 196V187.753H-0.5V196H1.5ZM196.5 195H0.5V197H196.5V195ZM195.5 0V196H197.5V0H195.5ZM1.5 187.753L1.5 117.027L-0.499997 117.027L-0.5 187.753L1.5 187.753ZM3.09985e-06 117.893L61.25 153.256L62.25 151.524L1 116.161L3.09985e-06 117.893ZM61.25 151.524L-1.34537e-07 186.887L1 188.619L62.25 153.256L61.25 151.524Z" fill="#FD4912" mask="url(#path-1-inside-1_229_90)"/>
</svg>
