<svg width="197" height="197" viewBox="0 0 197 197" fill="none" xmlns="http://www.w3.org/2000/svg">
<mask id="path-1-inside-1_229_94" fill="white">
<path fill-rule="evenodd" clip-rule="evenodd" d="M59.7188 10.899C58.7432 10.899 58.3836 9.50513 59.2767 9.11246C71.2896 3.83083 84.5693 0.899048 98.5338 0.899048C152.454 0.899048 196.164 44.609 196.164 98.529C196.164 152.449 152.454 196.159 98.5338 196.159C44.6138 196.159 0.903809 152.449 0.903809 98.529C0.903809 84.5645 3.83559 71.2848 9.11722 59.2719C9.50989 58.3788 10.9038 58.7384 10.9038 59.714V59.714C10.9038 86.674 32.7588 108.529 59.7188 108.529C86.6789 108.529 108.534 86.674 108.534 59.714C108.534 32.754 86.6789 10.899 59.7188 10.899V10.899Z"/>
</mask>
<path d="M9.11722 59.2719L10.0326 59.6744L9.11722 59.2719ZM59.2767 9.11246L59.6792 10.0279L59.2767 9.11246ZM98.5338 -0.100952C84.4281 -0.100952 71.0116 2.86069 58.8742 8.19703L59.6792 10.0279C71.5677 4.80097 84.7105 1.89905 98.5338 1.89905V-0.100952ZM197.164 98.529C197.164 44.0567 153.006 -0.100952 98.5338 -0.100952V1.89905C151.902 1.89905 195.164 45.1613 195.164 98.529H197.164ZM98.5338 197.159C153.006 197.159 197.164 153.001 197.164 98.529H195.164C195.164 151.897 151.902 195.159 98.5338 195.159V197.159ZM-0.0961914 98.529C-0.0961914 153.001 44.0615 197.159 98.5338 197.159V195.159C45.1661 195.159 1.90381 151.897 1.90381 98.529H-0.0961914ZM8.20179 58.8694C2.86545 71.0068 -0.0961914 84.4233 -0.0961914 98.529H1.90381C1.90381 84.7057 4.80573 71.5629 10.0326 59.6744L8.20179 58.8694ZM9.90381 59.714C9.90381 87.2263 32.2065 109.529 59.7188 109.529V107.529C33.3111 107.529 11.9038 86.1218 11.9038 59.714H9.90381ZM59.7188 109.529C87.2312 109.529 109.534 87.2263 109.534 59.714H107.534C107.534 86.1218 86.1266 107.529 59.7188 107.529V109.529ZM109.534 59.714C109.534 32.2017 87.2312 9.89905 59.7188 9.89905V11.899C86.1266 11.899 107.534 33.3063 107.534 59.714H109.534ZM10.0326 59.6744C10.0327 59.6743 10.0308 59.6786 10.0258 59.6858C10.0209 59.693 10.0138 59.7017 10.0045 59.7108C9.98496 59.7298 9.9629 59.7434 9.94317 59.7515C9.90724 59.7663 9.89639 59.7576 9.91334 59.7619C9.92974 59.766 9.93322 59.7731 9.92606 59.7649C9.92119 59.7593 9.91448 59.7495 9.90937 59.7361C9.90398 59.7221 9.90381 59.713 9.90381 59.714H11.9038C11.9038 58.6784 11.1507 58.0112 10.4022 57.8225C9.64341 57.6313 8.63765 57.8781 8.20179 58.8694L10.0326 59.6744ZM58.8742 8.19703C57.8828 8.63289 57.636 9.63865 57.8273 10.3974C58.016 11.1459 58.6832 11.899 59.7188 11.899V9.89905C59.7178 9.89905 59.7269 9.89922 59.7409 9.90461C59.7543 9.90972 59.764 9.91642 59.7696 9.9213C59.7778 9.92846 59.7708 9.92498 59.7666 9.90857C59.7624 9.89163 59.7711 9.90248 59.7563 9.9384C59.7482 9.95814 59.7346 9.9802 59.7156 9.99974C59.7065 10.0091 59.6978 10.0161 59.6906 10.0211C59.6834 10.026 59.6791 10.0279 59.6792 10.0279L58.8742 8.19703Z" fill="#FD4912" mask="url(#path-1-inside-1_229_94)"/>
</svg>
