<svg width="916" height="449" viewBox="0 0 916 449" fill="none" xmlns="http://www.w3.org/2000/svg">
<circle cx="691.5" cy="224.5" r="222.5" stroke="#FD4912" stroke-width="4"/>
<ellipse cx="83.4655" cy="224.5" rx="80.84" ry="222.5" stroke="#FD4912" stroke-width="4"/>
<ellipse cx="315.968" cy="224.5" rx="131.658" ry="222.5" stroke="#FD4912" stroke-width="4"/>
<path d="M74.5653 231.5V217.5H77.6853V231.5H74.5653ZM88.3974 231.5L82.9774 222.06H82.9374L82.9574 224.46V231.5H79.8974V217.5H83.6974L88.9974 226.82H89.0374L89.0174 224.42V217.5H92.0774V231.5H88.3974Z" fill="#0A0A0A"/>
<path d="M308.848 231.86C305.588 231.86 303.068 229.92 303.068 226.38V217.5H306.188V226.24C306.188 228.34 307.248 229.44 308.848 229.44C310.428 229.44 311.488 228.34 311.488 226.24V217.5H314.608V226.38C314.608 229.92 312.108 231.86 308.848 231.86ZM322.361 231.86C318.441 231.86 316.261 229.9 316.221 226.66H319.541C319.581 228.54 320.641 229.44 322.401 229.44C324.041 229.44 325.081 228.62 325.081 227.3C325.081 226.26 324.421 225.54 322.801 225.54H321.041C317.901 225.54 316.421 223.94 316.421 221.64C316.421 218.9 318.501 217.14 322.301 217.14C326.221 217.14 328.141 219.04 328.201 222.06H324.961C324.921 220.36 324.021 219.56 322.261 219.56C320.601 219.56 319.661 220.28 319.661 221.44C319.661 222.38 320.281 223.04 321.801 223.04H323.561C327.021 223.04 328.401 224.84 328.401 227.1C328.401 229.96 326.181 231.86 322.361 231.86Z" fill="#0A0A0A"/>
<path d="M678.02 231.86C674.04 231.86 671.06 229.3 671.06 224.5C671.06 219.7 674.04 217.14 678.02 217.14C681.98 217.14 684.98 219.7 684.98 224.5C684.98 229.3 681.98 231.86 678.02 231.86ZM674.4 224.5C674.4 227.92 675.88 229.44 678.02 229.44C680.16 229.44 681.64 227.92 681.64 224.5C681.64 221.08 680.16 219.56 678.02 219.56C675.88 219.56 674.4 221.08 674.4 224.5ZM692.419 231.86C689.159 231.86 686.639 229.92 686.639 226.38V217.5H689.759V226.24C689.759 228.34 690.819 229.44 692.419 229.44C693.999 229.44 695.059 228.34 695.059 226.24V217.5H698.179V226.38C698.179 229.92 695.679 231.86 692.419 231.86ZM703.93 231.5V219.92H699.51V217.5H711.49V219.92H707.05V231.5H703.93Z" fill="#0A0A0A"/>
</svg>
