<svg width="450" height="268" viewBox="0 0 450 268" fill="none" xmlns="http://www.w3.org/2000/svg">
<ellipse cx="224.826" cy="133.996" rx="131.658" ry="222.5" transform="rotate(90 224.826 133.996)" stroke="#FD4912" stroke-width="4"/>
<path d="M217.706 141.356C214.446 141.356 211.926 139.416 211.926 135.876V126.996H215.046V135.736C215.046 137.836 216.106 138.936 217.706 138.936C219.286 138.936 220.346 137.836 220.346 135.736V126.996H223.466V135.876C223.466 139.416 220.966 141.356 217.706 141.356ZM231.219 141.356C227.299 141.356 225.119 139.396 225.079 136.156H228.399C228.439 138.036 229.499 138.936 231.259 138.936C232.899 138.936 233.939 138.116 233.939 136.796C233.939 135.756 233.279 135.036 231.659 135.036H229.899C226.759 135.036 225.279 133.436 225.279 131.136C225.279 128.396 227.359 126.636 231.159 126.636C235.079 126.636 236.999 128.536 237.059 131.556H233.819C233.779 129.856 232.879 129.056 231.119 129.056C229.459 129.056 228.519 129.776 228.519 130.936C228.519 131.876 229.139 132.536 230.659 132.536H232.419C235.879 132.536 237.259 134.336 237.259 136.596C237.259 139.456 235.039 141.356 231.219 141.356Z" fill="#0A0A0A"/>
</svg>
