<svg width="450" height="450" viewBox="0 0 450 450" fill="none" xmlns="http://www.w3.org/2000/svg">
<circle cx="224.826" cy="224.528" r="222.5" transform="rotate(90 224.826 224.528)" stroke="#FD4912" stroke-width="4"/>
<path d="M211.346 231.888C207.366 231.888 204.386 229.328 204.386 224.528C204.386 219.728 207.366 217.168 211.346 217.168C215.306 217.168 218.306 219.728 218.306 224.528C218.306 229.328 215.306 231.888 211.346 231.888ZM207.726 224.528C207.726 227.948 209.206 229.468 211.346 229.468C213.486 229.468 214.966 227.948 214.966 224.528C214.966 221.108 213.486 219.588 211.346 219.588C209.206 219.588 207.726 221.108 207.726 224.528ZM225.745 231.888C222.485 231.888 219.965 229.948 219.965 226.408V217.528H223.085V226.268C223.085 228.368 224.145 229.468 225.745 229.468C227.325 229.468 228.385 228.368 228.385 226.268V217.528H231.505V226.408C231.505 229.948 229.005 231.888 225.745 231.888ZM237.256 231.528V219.948H232.836V217.528H244.816V219.948H240.376V231.528H237.256Z" fill="#0A0A0A"/>
</svg>
