<svg width="196" height="196" viewBox="0 0 196 196" fill="none" xmlns="http://www.w3.org/2000/svg">
<path d="M7.51654 148.858L7.51587 148.859C5.57663 150.798 4.07855 153.045 3.02011 155.603C1.96237 158.159 1.43311 160.848 1.43311 163.672V184.527C1.43311 187.47 2.42326 189.914 4.40126 191.892C6.37927 193.87 8.82295 194.86 11.7665 194.86H32.6208C35.4454 194.86 38.1338 194.331 40.6901 193.273C43.248 192.215 45.4948 190.717 47.434 188.777L118.393 117.819L133.558 102.652L133.912 103.005L133.558 102.652L192.33 43.8806C194.405 41.8047 195.433 39.3578 195.433 36.5154C195.433 33.673 194.405 31.2261 192.33 29.1502L167.142 3.96251C165.066 1.88662 162.619 0.858948 159.777 0.858948C156.934 0.858948 154.487 1.88662 152.411 3.96251L123.703 32.671L123.701 32.6726L93.6403 62.4628L93.6387 62.4644L78.2044 77.8997L78.2038 77.9004L7.51654 148.858Z" stroke="#FD4912"/>
</svg>
