<svg width="420" height="198" viewBox="0 0 420 198" fill="none" xmlns="http://www.w3.org/2000/svg">
<g clip-path="url(#clip0_1_5)">
<path d="M97.63 0C43.71 0 0 43.71 0 97.63C0 151.55 43.71 195.26 97.63 195.26C151.55 195.26 195.26 151.55 195.26 97.63C195.26 43.71 151.55 0 97.63 0ZM97.63 146.44C70.67 146.44 48.82 124.59 48.82 97.63C48.82 70.67 70.67 48.82 97.63 48.82C124.59 48.82 146.44 70.67 146.44 97.63C146.44 124.59 124.59 146.44 97.63 146.44Z" fill="#FD4912"/>
<path d="M146.44 109.83V134.24H134.24C134.24 127.5 128.78 122.04 122.04 122.04H97.63V97.63H134.24C140.98 97.63 146.44 103.09 146.44 109.83Z" fill="#FD4912"/>
<path d="M158.65 158.65C158.65 165.39 164.11 170.85 170.85 170.85H195.26V195.26H158.65C151.91 195.26 146.45 189.8 146.45 183.06V158.65H158.65Z" fill="#FD4912"/>
<path d="M209.28 89H225.51C236.75 89 245.13 96.23 245.13 109.08C245.13 121.93 236.76 129.16 225.51 129.16H209.28V89.01V89ZM224.48 122.21C231.53 122.21 235.55 117.79 235.55 109.08C235.55 100.37 231.53 95.95 224.48 95.95H218.23V122.22H224.48V122.21Z" fill="#0A0A0A"/>
<path d="M248.29 113.38C248.29 102.6 254.83 96.57 263.95 96.57C273.07 96.57 279.32 101.79 279.32 112.4V115.67H257.35C257.52 120.66 260.16 123.7 264.18 123.7C267.22 123.7 269.28 122.04 270.09 119.46H278.81C277.43 125.83 271.98 130.19 264.01 130.19C254.66 130.19 248.29 124.11 248.29 113.38ZM270.77 109.88C270.77 105.92 268.53 103.05 264.23 103.05C259.93 103.05 257.63 106.03 257.4 109.88H270.77Z" fill="#0A0A0A"/>
<path d="M282.07 118.71H290.9C290.96 122.21 293.14 123.7 296.52 123.7C299.9 123.7 301.8 122.09 301.8 119.63C301.8 117.45 300.31 116.02 296.75 116.02H293.31C286.48 116.02 282.64 112.41 282.64 106.96C282.64 100.76 287.86 96.58 296.41 96.58C305.41 96.58 310.23 101.11 310.35 107.82H301.75C301.69 104.72 299.91 103.06 296.53 103.06C293.43 103.06 291.65 104.38 291.65 106.62C291.65 108.86 293.2 109.83 296.01 109.83H299.8C307.66 109.83 310.93 114.07 310.93 119.35C310.93 125.77 306 130.19 296.59 130.19C287.18 130.19 282.19 125.72 282.08 118.72L282.07 118.71Z" fill="#0A0A0A"/>
<path d="M315.28 85.16H324V93.19H315.28V85.16ZM315.34 97.61H323.89V129.16H315.34V97.61Z" fill="#0A0A0A"/>
<path d="M327.21 134.09C327.21 131.22 328.87 128.87 332.43 128.18V128.06C330.14 127.03 328.7 125.08 328.7 122.38C328.7 119.28 330.77 117.22 333.46 116.76L334.21 116.65V116.53C330.6 114.98 328.3 111.83 328.3 107.53C328.3 100.42 334.44 96.57 341.49 96.57C346.19 96.57 350.32 98.35 352.67 101.45H352.84C352.96 99.04 354.33 97.61 356.63 97.61H358.29V104.32H356C355.02 104.32 354.62 104.66 354.51 105.58C354.62 106.21 354.68 106.84 354.68 107.53C354.68 114.36 349.12 118.43 341.83 118.43H338.68C337.07 118.43 336.1 118.95 336.1 120.21C336.1 121.47 337.02 122.05 338.68 122.05H347.86C354.69 122.05 358.59 125.61 358.59 131.28C358.59 136.95 354.69 140.63 347.86 140.63H336.1C330.02 140.63 327.21 137.88 327.21 134.09ZM338.28 135.07H346.25C348.83 135.07 350.21 133.86 350.21 131.8C350.21 129.74 348.83 128.53 346.25 128.53H338.28C335.58 128.53 334.27 129.85 334.27 131.86C334.27 133.87 335.53 135.07 338.28 135.07ZM341.49 112.87C344.42 112.87 346.77 111.26 346.77 107.94C346.77 104.62 344.42 103.06 341.49 103.06C338.56 103.06 336.27 104.67 336.27 107.94C336.27 111.21 338.56 112.87 341.49 112.87Z" fill="#0A0A0A"/>
<path d="M361.97 97.61H370.4V101.8H370.51C372.46 98.36 375.73 96.58 379.75 96.58C386 96.58 390.48 100.71 390.48 108.85V129.15H381.93V109.88C381.93 105.23 379.87 103.11 376.6 103.11C373.56 103.11 370.52 105.06 370.52 110.51V129.15H361.97V97.6V97.61Z" fill="#0A0A0A"/>
<path d="M207.91 182.19H217.43C217.54 187.58 220.58 190.16 225.63 190.16C230.33 190.16 233.32 187.81 233.32 184.02C233.32 181.04 231.43 178.97 226.78 178.97H221.73C212.72 178.97 208.48 174.38 208.48 167.79C208.48 159.93 214.44 154.88 225.34 154.88C236.24 154.88 242.09 160.33 242.26 168.99H232.97C232.85 164.11 230.27 161.82 225.23 161.82C220.47 161.82 217.77 163.88 217.77 167.21C217.77 169.91 219.55 171.8 223.91 171.8H228.96C238.88 171.8 242.84 176.96 242.84 183.44C242.84 191.64 236.47 197.09 225.52 197.09C214.57 197.09 208.03 191.47 207.91 182.18V182.19Z" fill="#0A0A0A"/>
<path d="M251.15 187.41V171.24H245.19V164.53H251.15V155.93H259.64V164.53H268.93V171.24H259.64V185.64C259.64 188.34 261.02 189.37 263.43 189.37H269.05V196.08H259.87C254.08 196.08 251.15 193.21 251.15 187.42V187.41Z" fill="#0A0A0A"/>
<path d="M272.32 184.83V164.53H280.87V183.8C280.87 188.5 282.88 190.57 286.09 190.57C289.3 190.57 292.11 188.62 292.11 183.17V164.53H300.66V196.08H292.23V191.89H292.12C290.23 195.45 287.01 197.11 283.06 197.11C276.81 197.11 272.33 192.98 272.33 184.84L272.32 184.83Z" fill="#0A0A0A"/>
<path d="M305.07 180.29C305.07 169.28 311.38 163.48 318.66 163.48C323.13 163.48 326.63 165.66 328.47 169.27H328.59C328.47 168.18 328.47 167.26 328.47 166.23V151.26H337.02V196.06H328.53V194.68C328.53 193.48 328.53 192.44 328.59 191.3H328.47C326.64 194.91 323.14 197.09 318.66 197.09C311.37 197.09 305.07 191.3 305.07 180.28V180.29ZM321.36 190.61C326.06 190.61 328.53 186.6 328.53 180.29C328.53 173.98 326.06 169.97 321.36 169.97C316.66 169.97 314.19 173.98 314.19 180.29C314.19 186.6 316.71 190.61 321.36 190.61Z" fill="#0A0A0A"/>
<path d="M342.98 152.08H351.7V160.11H342.98V152.08ZM343.04 164.53H351.59V196.08H343.04V164.53Z" fill="#0A0A0A"/>
<path d="M355.94 180.29C355.94 169.39 363.11 163.48 372.11 163.48C381.11 163.48 388.28 169.39 388.28 180.29C388.28 191.19 381.11 197.1 372.11 197.1C363.11 197.1 355.94 191.19 355.94 180.29ZM372.11 190.61C376.58 190.61 379.16 187.05 379.16 180.29C379.16 173.53 376.58 169.97 372.11 169.97C367.64 169.97 365.05 173.53 365.05 180.29C365.05 187.05 367.63 190.61 372.11 190.61Z" fill="#0A0A0A"/>
<path d="M391.16 185.63H399.99C400.05 189.13 402.23 190.62 405.61 190.62C408.99 190.62 410.89 189.01 410.89 186.55C410.89 184.37 409.4 182.94 405.84 182.94H402.4C395.57 182.94 391.73 179.33 391.73 173.88C391.73 167.68 396.95 163.5 405.5 163.5C414.5 163.5 419.32 168.03 419.44 174.74H410.84C410.78 171.64 409 169.98 405.62 169.98C402.52 169.98 400.74 171.3 400.74 173.54C400.74 175.78 402.29 176.75 405.1 176.75H408.89C416.75 176.75 420.02 180.99 420.02 186.27C420.02 192.69 415.09 197.11 405.68 197.11C396.27 197.11 391.28 192.64 391.17 185.64L391.16 185.63Z" fill="#0A0A0A"/>
</g>
<defs>
<clipPath id="clip0_1_5">
<rect width="420.01" height="197.1" fill="white"/>
</clipPath>
</defs>
</svg>
