<svg width="353" height="353" viewBox="0 0 353 353" fill="none" xmlns="http://www.w3.org/2000/svg">
<path d="M176.5 0C79.0208 0 0 79.0208 0 176.5C0 273.978 79.0208 352.999 176.5 352.999C273.978 352.999 352.999 273.978 352.999 176.5C352.999 79.0208 273.978 0 176.5 0ZM176.5 264.74C127.76 264.74 88.2589 225.239 88.2589 176.5C88.2589 127.76 127.76 88.2589 176.5 88.2589C225.239 88.2589 264.74 127.76 264.74 176.5C264.74 225.239 225.239 264.74 176.5 264.74Z" fill="#FD4912"/>
<path d="M264.742 198.555V242.684H242.686C242.686 230.499 232.815 220.628 220.631 220.628H176.501V176.499H242.686C254.871 176.499 264.742 186.37 264.742 198.555Z" fill="#FD4912"/>
<path d="M286.815 286.813C286.815 298.998 296.686 308.869 308.871 308.869H353V352.998H286.815C274.63 352.998 264.759 343.127 264.759 330.943V286.813H286.815Z" fill="#FD4912"/>
</svg>
