<svg width="451" height="451" viewBox="0 0 451 451" fill="none" xmlns="http://www.w3.org/2000/svg">
<path d="M450.725 0.17627L225.786 0.17627C225.786 0.232285 225.786 0.288305 225.786 0.34433C225.786 13.1724 224.712 25.7493 222.65 37.9902C214.985 16.064 194.122 0.344421 169.574 0.344421H0.893066V112.814H113.363C138.487 112.814 159.751 129.28 166.956 152.014C125.835 197.013 66.6646 225.237 0.893127 225.237C0.837113 225.237 0.781103 225.237 0.725098 225.237V450.176C0.781105 450.176 0.837115 450.176 0.893127 450.176C82.8369 450.176 159.663 428.266 225.832 389.984V393.964C225.832 425.019 250.989 450.176 282.044 450.176H450.725V337.706H338.255C327.156 337.706 316.809 334.492 308.096 328.944C395.868 246.853 450.725 130.006 450.725 0.34433C450.725 0.288307 450.725 0.232287 450.725 0.17627Z" fill="#FD4912"/>
</svg>
