<?xml version="1.0" encoding="UTF-8"?>
<svg id="Layer_2" data-name="Layer 2" xmlns="http://www.w3.org/2000/svg" viewBox="0 0 203.03 203.03">
  <defs>
    <style>
      .cls-1 {
        stroke: #2a2a29;
        stroke-width: .11px;
      }

      .cls-1, .cls-2 {
        fill: none;
        stroke-miterlimit: 10;
      }

      .cls-2 {
        stroke: #FD4912;
        stroke-width: 1.06px;
      }
    </style>
  </defs>
  <g id="Layer_1-2" data-name="Layer 1">
    <g>
      <path class="cls-1" d="m202.5,202.5H.53V.53h201.97v201.97ZM177.25.53v201.97M152.01.53v201.97M139.38.53v201.97M126.76.53v201.97M101.52.53v201.97M164.63.53v201.97M.53,101.52h201.97M.53,114.14h201.97M.53,126.76h201.97M.53,139.38h201.97M.53,152.01h201.97M.53,164.63h201.97M.53,177.25h201.97M.53,189.88h201.97m-50.49-75.74c0,6.97-5.65,12.62-12.62,12.62s-12.62-5.65-12.62-12.62,5.65-12.62,12.62-12.62,12.62,5.65,12.62,12.62Zm-12.62,25.25c0,6.97-5.65,12.62-12.62,12.62s-12.62-5.65-12.62-12.62,5.65-12.62,12.62-12.62,12.62,5.65,12.62,12.62Zm37.87,12.62c6.97,0,12.62,5.65,12.62,12.62s-5.65,12.62-12.62,12.62-12.62-5.65-12.62-12.62,5.65-12.62,12.62-12.62Zm-12.62,25.25c6.97,0,12.62,5.65,12.62,12.62s-5.65,12.62-12.62,12.62-12.62-5.65-12.62-12.62,5.65-12.62,12.62-12.62Zm37.87,25.25L.53.53"/>
      <path class="cls-2" d="m101.51.53C45.74.53.53,45.74.53,101.52s45.21,100.98,100.98,100.98,100.98-45.21,100.98-100.98S157.29.53,101.51.53Zm0,151.48c-27.89,0-50.49-22.61-50.49-50.49s22.61-50.49,50.49-50.49,50.49,22.61,50.49,50.49-22.61,50.49-50.49,50.49Zm50.49-37.87v25.25s-12.62,0-12.62,0c0-6.97-5.65-12.62-12.62-12.62h-25.25v-25.25s37.87,0,37.87,0c6.97,0,12.62,5.65,12.62,12.62Zm12.62,50.49c0,6.97,5.65,12.62,12.62,12.62h25.25v25.25h-37.87c-6.97,0-12.62-5.65-12.62-12.62v-25.25s12.62,0,12.62,0Z"/>
    </g>
  </g>
</svg>