<svg width="1376" height="726" viewBox="0 0 1376 726" fill="none" xmlns="http://www.w3.org/2000/svg">
<path d="M9.50718 24.8909H114.718C187.581 24.8909 241.904 71.7593 241.904 155.059C241.904 238.359 187.646 285.228 114.718 285.228H9.50718V24.8909ZM108.041 240.174C153.742 240.174 179.802 211.522 179.802 155.059C179.802 98.5968 153.742 69.9441 108.041 69.9441H67.5254V240.239H108.041V240.174Z" fill="#0A0A0A"/>
<path d="M262.388 182.938C262.388 113.056 304.783 73.9671 363.904 73.9671C423.024 73.9671 463.539 107.806 463.539 176.585V197.783H321.119C322.221 230.13 339.335 249.837 365.394 249.837C385.101 249.837 398.455 239.076 403.706 222.351H460.233C451.287 263.645 415.958 291.908 364.293 291.908C303.681 291.908 262.388 252.495 262.388 182.938ZM408.114 160.249C408.114 134.578 393.593 115.974 365.719 115.974C337.844 115.974 322.934 135.291 321.443 160.249H408.114Z" fill="#0A0A0A"/>
<path d="M481.366 217.487H538.606C538.995 240.175 553.127 249.834 575.038 249.834C596.949 249.834 609.265 239.397 609.265 223.45C609.265 209.319 599.607 200.049 576.529 200.049H554.229C509.954 200.049 485.061 176.647 485.061 141.317C485.061 101.126 518.9 74.0292 574.325 74.0292C632.667 74.0292 663.913 103.395 664.691 146.892H608.941C608.552 126.797 597.013 116.036 575.103 116.036C555.007 116.036 543.468 124.593 543.468 139.113C543.468 153.634 553.516 159.922 571.732 159.922H596.3C647.253 159.922 668.45 187.408 668.45 221.635C668.45 263.253 636.492 291.905 575.492 291.905C514.491 291.905 482.144 262.929 481.431 217.551L481.366 217.487Z" fill="#0A0A0A"/>
<path d="M696.651 0H753.178V52.0543H696.651V0ZM697.04 80.7069H752.465V285.229H697.04V80.7069Z" fill="#0A0A0A"/>
<path d="M773.986 317.19C773.986 298.585 784.747 283.351 807.825 278.878V278.101C792.98 271.424 783.645 258.783 783.645 241.28C783.645 221.184 797.064 207.83 814.501 204.848L819.363 204.135V203.357C795.962 193.31 781.052 172.89 781.052 145.015C781.052 98.9246 820.854 73.9671 866.556 73.9671C897.023 73.9671 923.796 85.5059 939.03 105.602H940.132C940.91 89.9788 949.791 80.7089 964.701 80.7089H975.462V124.206H960.617C954.264 124.206 951.671 126.41 950.958 132.374C951.671 136.458 952.06 140.542 952.06 145.015C952.06 189.29 916.017 215.674 868.76 215.674H848.34C837.903 215.674 831.615 219.045 831.615 227.213C831.615 235.381 837.579 239.141 848.34 239.141H907.849C952.125 239.141 977.406 262.218 977.406 298.974C977.406 335.73 952.125 359.585 907.849 359.585H831.615C792.202 359.585 773.986 341.759 773.986 317.19ZM845.747 323.543H897.412C914.137 323.543 923.083 315.699 923.083 302.345C923.083 288.991 914.137 281.147 897.412 281.147H845.747C828.244 281.147 819.752 289.704 819.752 302.734C819.752 315.764 827.92 323.543 845.747 323.543ZM866.556 179.632C885.549 179.632 900.783 169.195 900.783 147.673C900.783 126.151 885.549 116.038 866.556 116.038C847.562 116.038 832.717 126.475 832.717 147.673C832.717 168.871 847.562 179.632 866.556 179.632Z" fill="#0A0A0A"/>
<path d="M999.318 80.7061H1053.97V107.868H1054.68C1067.32 85.568 1088.52 74.0292 1114.58 74.0292C1155.09 74.0292 1184.13 100.802 1184.13 153.569V285.164H1128.71V160.246C1128.71 130.103 1115.35 116.36 1094.16 116.36C1074.45 116.36 1054.74 129.001 1054.74 164.33V285.164H999.318V80.6413V80.7061Z" fill="#0A0A0A"/>
<path d="M0.625488 628.997H62.3387C63.0517 663.937 82.7586 680.662 115.495 680.662C145.963 680.662 165.345 665.428 165.345 640.86C165.345 621.542 153.093 608.123 122.95 608.123H90.2134C31.8062 608.123 4.32045 578.369 4.32045 535.649C4.32045 484.697 42.9561 451.96 113.615 451.96C184.274 451.96 222.197 487.29 223.299 543.428H163.077C162.299 511.793 145.574 496.949 112.902 496.949C82.0454 496.949 64.5428 510.303 64.5428 531.889C64.5428 549.392 76.0816 561.644 104.345 561.644H137.082C201.388 561.644 227.059 595.093 227.059 637.1C227.059 690.256 185.765 725.586 114.782 725.586C43.7988 725.586 1.40339 689.154 0.625488 628.932V628.997Z" fill="#0A0A0A"/>
<path d="M280.928 558.012H242.293V514.515H280.928V458.765H335.965V514.515H396.187V558.012H335.965V651.36C335.965 668.863 344.91 675.539 360.533 675.539H396.965V719.037H337.455C299.922 719.037 280.928 700.432 280.928 662.899V558.012Z" fill="#0A0A0A"/>
<path d="M418.162 646.11V514.515H473.587V639.433C473.587 669.9 486.617 683.319 507.426 683.319C528.235 683.319 546.45 670.678 546.45 635.349V514.515H601.876V719.038H547.228V691.876H546.515C534.263 714.954 513.39 725.715 487.784 725.715C447.268 725.715 418.227 698.942 418.227 646.174L418.162 646.11Z" fill="#0A0A0A"/>
<path d="M630.463 616.679C630.463 545.307 671.367 507.708 718.56 507.708C747.536 507.708 770.225 521.84 782.153 545.242H782.931C782.153 538.176 782.153 532.212 782.153 525.535V428.492H837.578V718.908H782.542V709.962C782.542 702.183 782.542 695.441 782.931 688.051H782.153C770.29 711.453 747.601 725.585 718.56 725.585C671.302 725.585 630.463 688.051 630.463 616.614V616.679ZM736.062 683.578C766.53 683.578 782.542 657.583 782.542 616.679C782.542 575.775 766.53 549.78 736.062 549.78C705.594 549.78 689.583 575.775 689.583 616.679C689.583 657.583 705.919 683.578 736.062 683.578Z" fill="#0A0A0A"/>
<path d="M876.215 433.807H932.743V485.861H876.215V433.807ZM876.604 514.513H932.029V719.036H876.604V514.513Z" fill="#0A0A0A"/>
<path d="M960.228 616.678C960.228 546.019 1006.71 507.707 1065.05 507.707C1123.39 507.707 1169.87 546.019 1169.87 616.678C1169.87 687.337 1123.39 725.648 1065.05 725.648C1006.71 725.648 960.228 687.337 960.228 616.678ZM1065.05 683.577C1094.03 683.577 1110.75 660.499 1110.75 616.678C1110.75 572.856 1094.03 549.779 1065.05 549.779C1036.07 549.779 1019.28 572.856 1019.28 616.678C1019.28 660.499 1036.01 683.577 1065.05 683.577Z" fill="#0A0A0A"/>
<path d="M1188.54 651.294H1245.78C1246.17 673.983 1260.3 683.641 1282.21 683.641C1304.12 683.641 1316.44 673.205 1316.44 657.258C1316.44 643.126 1306.78 633.856 1283.7 633.856H1261.4C1217.13 633.856 1192.24 610.454 1192.24 575.125C1192.24 534.933 1226.07 507.836 1281.5 507.836C1339.84 507.836 1371.09 537.202 1371.87 580.7H1316.12C1315.73 560.604 1304.19 549.843 1282.28 549.843C1262.18 549.843 1250.64 558.4 1250.64 572.921C1250.64 587.441 1260.69 593.729 1278.91 593.729H1303.48C1354.43 593.729 1375.63 621.215 1375.63 655.443C1375.63 697.06 1343.67 725.713 1282.67 725.713C1221.67 725.713 1189.32 696.736 1188.61 651.359L1188.54 651.294Z" fill="#0A0A0A"/>
</svg>
