<svg width="344" height="48" viewBox="0 0 344 48" fill="none" xmlns="http://www.w3.org/2000/svg">
<path d="M0.64 37.9993V4.39927H14.224C23.632 4.39927 30.64 10.4473 30.64 21.1993C30.64 31.9513 23.632 37.9993 14.224 37.9993H0.64ZM8.128 32.1913H13.36C19.264 32.1913 22.624 28.4953 22.624 21.1993C22.624 13.8553 19.264 10.2073 13.36 10.2073H8.128V32.1913ZM46.429 38.8633C38.605 38.8633 33.277 33.7753 33.277 24.7993C33.277 15.7753 38.749 10.7353 46.381 10.7353C53.773 10.7353 59.245 15.1033 59.245 23.9833V26.7193H40.861C41.005 30.8953 43.213 33.4393 46.573 33.4393C49.117 33.4393 50.845 32.0473 51.517 29.8873H58.813C57.661 35.2153 53.101 38.8633 46.429 38.8633ZM40.909 21.8713H52.093C52.093 18.5593 50.221 16.1593 46.621 16.1593C42.925 16.1593 41.101 18.6553 40.909 21.8713ZM73.6889 38.8633C65.7689 38.8633 61.6409 35.1193 61.5449 29.2633H68.9369C68.9849 32.1913 70.8089 33.4393 73.6409 33.4393C76.5689 33.4393 78.0569 32.0953 78.0569 30.0313C78.0569 28.2073 76.8089 27.0073 73.8329 27.0073H70.9529C65.2409 27.0073 62.0249 23.9833 62.0249 19.4233C62.0249 14.2393 66.3929 10.7353 73.5449 10.7353C81.0809 10.7353 85.1129 14.5273 85.2089 20.1433H78.0089C77.9609 17.5513 76.4729 16.1593 73.6409 16.1593C71.0489 16.1593 69.5609 17.2633 69.5609 19.1353C69.5609 20.9113 70.8569 21.8233 73.2089 21.8233H76.3769C82.9529 21.8233 85.6889 25.3753 85.6889 29.7913C85.6889 35.1673 81.5609 38.8633 73.6889 38.8633ZM89.3721 37.9993V11.5993H96.5241V37.9993H89.3721ZM89.3241 7.90327V1.18327H96.6201V7.90327H89.3241ZM106.757 47.5993C101.669 47.5993 99.3171 45.2953 99.3171 42.1273C99.3171 39.7273 100.709 37.7593 103.685 37.1833V37.0873C101.765 36.2233 100.565 34.5913 100.565 32.3353C100.565 29.7433 102.293 28.0153 104.549 27.6313L105.173 27.5353V27.4393C102.149 26.1433 100.229 23.5033 100.229 19.9033C100.229 13.9513 105.365 10.7353 111.269 10.7353C115.205 10.7353 118.661 12.2233 120.629 14.8153H120.773C120.869 12.7993 122.021 11.5993 123.941 11.5993H125.333V17.2153H123.413C122.597 17.2153 122.261 17.5033 122.165 18.2713C122.261 18.7993 122.309 19.3273 122.309 19.9033C122.309 25.6153 117.653 29.0233 111.557 29.0233H108.917C107.573 29.0233 106.757 29.4553 106.757 30.5113C106.757 31.5673 107.525 32.0473 108.917 32.0473H116.597C122.309 32.0473 125.573 35.0233 125.573 39.7753C125.573 44.5753 122.309 47.5993 116.597 47.5993H106.757ZM105.221 40.2553C105.221 41.8873 106.277 42.9433 108.581 42.9433H115.253C117.413 42.9433 118.565 41.9353 118.565 40.2073C118.565 38.5273 117.413 37.4713 115.253 37.4713H108.581C106.325 37.4713 105.221 38.5753 105.221 40.2553ZM106.901 20.2393C106.901 23.0233 108.821 24.3673 111.269 24.3673C113.717 24.3673 115.685 23.0233 115.685 20.2393C115.685 17.5033 113.717 16.1593 111.269 16.1593C108.821 16.1593 106.901 17.5033 106.901 20.2393ZM128.419 37.9993V11.5993H135.475V15.1033H135.571C137.203 12.2233 139.939 10.7353 143.299 10.7353C148.531 10.7353 152.275 14.1913 152.275 21.0073V37.9993H145.123V21.8713C145.123 17.9833 143.395 16.2073 140.659 16.2073C138.115 16.2073 135.571 17.8393 135.571 22.3993V37.9993H128.419ZM180.443 38.8633C171.035 38.8633 165.803 34.1593 165.707 26.3833H173.675C173.771 30.8953 176.315 33.0553 180.539 33.0553C184.475 33.0553 186.971 31.0873 186.971 27.9193C186.971 25.4233 185.387 23.6953 181.499 23.6953H177.275C169.739 23.6953 166.187 19.8553 166.187 14.3353C166.187 7.75926 171.179 3.53526 180.299 3.53526C189.707 3.53526 194.315 8.09527 194.459 15.3433H186.683C186.587 11.2633 184.427 9.34327 180.203 9.34327C176.219 9.34327 173.963 11.0713 173.963 13.8553C173.963 16.1113 175.451 17.6953 179.099 17.6953H183.323C191.627 17.6953 194.939 22.0153 194.939 27.4393C194.939 34.3033 189.611 38.8633 180.443 38.8633ZM209.191 37.9993C204.343 37.9993 201.895 35.5993 201.895 30.7513V17.2153H196.903V11.5993H201.895V4.39927H208.999V11.5993H216.775V17.2153H208.999V29.2633C208.999 31.5193 210.151 32.3833 212.167 32.3833H216.871V37.9993H209.191ZM228.608 38.8633C223.376 38.8633 219.632 35.4073 219.632 28.5913V11.5993H226.784V27.7273C226.784 31.6633 228.464 33.3913 231.152 33.3913C233.744 33.3913 236.192 31.7593 236.192 27.1993V11.5993H243.344V37.9993H236.288V34.4953H236.192C234.608 37.4713 231.92 38.8633 228.608 38.8633ZM258.403 38.8633C252.307 38.8633 247.027 34.0153 247.027 24.7993C247.027 15.5833 252.307 10.7353 258.403 10.7353C262.147 10.7353 265.075 12.5593 266.611 15.5833H266.707C266.611 14.6713 266.611 13.9033 266.611 13.0393V0.511267H273.763V37.9993H266.659V36.8473C266.659 35.8393 266.659 34.9753 266.707 34.0153H266.611C265.075 37.0393 262.147 38.8633 258.403 38.8633ZM254.659 24.7993C254.659 30.0793 256.771 33.4393 260.659 33.4393C264.595 33.4393 266.659 30.0793 266.659 24.7993C266.659 19.5193 264.595 16.1593 260.659 16.1593C256.771 16.1593 254.659 19.5193 254.659 24.7993ZM278.794 37.9993V11.5993H285.946V37.9993H278.794ZM278.746 7.90327V1.18327H286.042V7.90327H278.746ZM303.126 38.8633C295.59 38.8633 289.59 33.9193 289.59 24.7993C289.59 15.6793 295.59 10.7353 303.126 10.7353C310.662 10.7353 316.661 15.6793 316.661 24.7993C316.661 33.9193 310.662 38.8633 303.126 38.8633ZM297.222 24.7993C297.222 30.4633 299.382 33.4393 303.126 33.4393C306.87 33.4393 309.03 30.4633 309.03 24.7993C309.03 19.1353 306.87 16.1593 303.126 16.1593C299.382 16.1593 297.222 19.1353 297.222 24.7993ZM331.22 38.8633C323.3 38.8633 319.172 35.1193 319.076 29.2633H326.468C326.516 32.1913 328.34 33.4393 331.172 33.4393C334.1 33.4393 335.588 32.0953 335.588 30.0313C335.588 28.2073 334.34 27.0073 331.364 27.0073H328.484C322.772 27.0073 319.556 23.9833 319.556 19.4233C319.556 14.2393 323.924 10.7353 331.076 10.7353C338.612 10.7353 342.644 14.5273 342.74 20.1433H335.54C335.492 17.5513 334.004 16.1593 331.172 16.1593C328.58 16.1593 327.092 17.2633 327.092 19.1353C327.092 20.9113 328.388 21.8233 330.74 21.8233H333.908C340.484 21.8233 343.22 25.3753 343.22 29.7913C343.22 35.1673 339.092 38.8633 331.22 38.8633Z" fill="black"/>
</svg>
